<?xml version="1.0" encoding="utf-8"?>
<!-- Generator: Adobe Illustrator 27.3.1, SVG Export Plug-In . SVG Version: 6.00 Build 0)  -->
<svg version="1.1" id="Camada_1" xmlns="http://www.w3.org/2000/svg" xmlns:xlink="http://www.w3.org/1999/xlink" x="0px" y="0px"
	 viewBox="0 0 948.58 1848.94" style="enable-background:new 0 0 948.58 1848.94;" xml:space="preserve">
<style type="text/css">
	.st0{fill:#005AFA;}
	.st1{fill:#E6E6E6;}
</style>
<g>
	<polygon class="st0" points="579.72,1141.03 474.12,1040.24 368.52,1141.03 368.52,1616.71 267.85,1553.87 267.85,1082.91 
		0,928.26 0,1616.71 368.52,1848.94 579.72,1848.94 948.58,1616.71 948.58,1349.01 680.87,1194.43 680.87,1553.87 579.72,1616.71 	
		"/>
	<path class="st1" d="M319.76,300.26l-0.05,177.93l154.36,94.75l156.22-94.75V275.94H371.62L40.54,0l791.41,0.01
		c0,0,116.63,0,116.63,117.06c0,26.14,0,551.85,0,551.85l-191.59,105.6l191.59,105.6v352.62l-267.72-154.58V966.64L267.85,774.52
		v192.13L0,812V33.75"/>
</g>
<g>
</g>
<g>
</g>
<g>
</g>
<g>
</g>
<g>
</g>
<g>
</g>
<g>
</g>
<g>
</g>
<g>
</g>
<g>
</g>
<g>
</g>
<g>
</g>
<g>
</g>
<g>
</g>
</svg>
